<?xml version="1.0" encoding="utf-8"?>
<!-- Generator: Adobe Illustrator 27.7.0, SVG Export Plug-In . SVG Version: 6.00 Build 0)  -->
<svg version="1.1" id="Layer_1" xmlns="http://www.w3.org/2000/svg" xmlns:xlink="http://www.w3.org/1999/xlink" x="0px" y="0px"
	 viewBox="0 0 2500 2500" style="enable-background:new 0 0 2500 2500;" xml:space="preserve">
<style type="text/css">
	.st0{fill:#FFFFFF;}
</style>
<g>
	<path class="st0" d="M1250,1250c0-205.5,166.6-372.1,372.1-372.1H1250V1250z"/>
	<path class="st0" d="M1251.9,1C562.5,1,3.7,559.8,3.7,1249.2s558.8,1248.1,1248.1,1248.1S2500,1938.5,2500,1249.2
		S1941.2,1,1251.9,1z M1994.3,1250c0,205.5-166.6,372.1-372.1,372.1c-205.5,0-372.1-166.6-372.1-372.1v372.1v372.1
		c0,205.5-166.6,372.1-372.1,372.1s-372.1-166.6-372.1-372.1c0-205.5,166.6-372.1,372.1-372.1c-205.5,0-372.1-166.6-372.1-372.1
		c0-205.5,166.6-372.1,372.1-372.1c-205.5,0-372.1-166.6-372.1-372.1l0,0c0-205.5,166.6-372.1,372.1-372.1H1250v0h372.1
		c205.5,0,372.1,166.6,372.1,372.1c0,205.5-166.6,372.1-372.1,372.1C1827.7,877.9,1994.3,1044.5,1994.3,1250z"/>
</g>
</svg>
