<?xml version="1.0" encoding="utf-8"?>
<!-- Generator: Adobe Illustrator 27.7.0, SVG Export Plug-In . SVG Version: 6.00 Build 0)  -->
<svg version="1.1" id="Layer_1" xmlns="http://www.w3.org/2000/svg" xmlns:xlink="http://www.w3.org/1999/xlink" x="0px" y="0px"
	 viewBox="0 0 2500 2500" style="enable-background:new 0 0 2500 2500;" xml:space="preserve">
<style type="text/css">
	.st0{fill:#FFFFFF;}
</style>
<g>
	<path class="st0" d="M1250,929.4c-177,0-320.5,143.5-320.5,320.6s143.5,320.6,320.5,320.6s320.6-143.5,320.6-320.6
		S1427.1,929.4,1250,929.4z"/>
	<path class="st0" d="M1999.8,682.8c-17.5-44.9-38.2-77-71.9-110.6c-33.7-33.6-65.7-54.5-110.6-71.9
		c-33.9-13.1-84.8-28.8-178.6-33.1c-101.4-4.6-131.9-5.6-388.6-5.6s-287.1,0.9-388.5,5.6c-93.8,4.3-144.7,19.9-178.6,33.1
		c-45,17.4-77,38.2-110.6,71.9c-33.6,33.7-54.5,65.7-71.9,110.6c-13.1,33.9-28.8,84.8-33.1,178.6c-4.6,101.4-5.6,131.8-5.6,388.6
		s0.9,287.3,5.6,388.6c4.3,93.8,19.9,144.7,33.1,178.6c17.4,44.9,38.2,76.9,71.9,110.5s65.7,54.5,110.6,71.9
		c33.9,13.2,84.8,28.8,178.6,33.1c101.3,4.7,131.7,5.6,388.5,5.6s287.3-0.9,388.6-5.6c93.8-4.3,144.7-19.9,178.6-33.1
		c44.9-17.5,77-38.3,110.6-71.9s54.5-65.6,71.9-110.5c13.1-33.9,28.8-84.8,33.1-178.6c4.7-101.4,5.6-131.8,5.6-388.6
		s-0.9-287.2-5.6-388.6C2028.6,767.6,2013,716.7,1999.8,682.8z M1250,1743.8c-272.7,0-493.8-221.1-493.8-493.8
		S977.3,756.2,1250,756.2s493.8,221.1,493.8,493.8S1522.8,1743.8,1250,1743.8z M1763.3,852.1c-63.7,0-115.4-51.7-115.3-115.4
		c0.1-63.7,51.7-115.3,115.4-115.3h0c63.7,0,115.4,51.7,115.3,115.4C1878.7,800.5,1827.1,852.1,1763.3,852.1z"/>
	<path class="st0" d="M1251.5,1.8C562,1.8,3,560.8,3,1250.3s559,1248.5,1248.5,1248.5S2500,1939.8,2500,1250.3S1941,1.8,1251.5,1.8z
		 M2161.2,1879.9c-24.6,63.2-57.4,116.9-110.9,170.3c-53.5,53.4-107.1,86.3-170.3,110.9c-61.1,23.8-131,40-233.4,44.7
		c-102.5,4.7-135.3,5.8-396.5,5.8s-293.9-1.2-396.5-5.8c-102.4-4.7-172.2-20.9-233.4-44.7c-63.3-24.6-116.8-57.5-170.3-110.9
		s-86.4-107.1-110.9-170.3c-23.8-61.1-40-131-44.7-233.4c-4.7-102.5-5.8-135.3-5.8-396.5s1.1-293.9,5.8-396.5
		c4.7-102.4,20.9-172.3,44.7-233.4c24.5-63.3,57.4-116.9,110.9-170.3s107.1-86.4,170.3-110.9c61.1-23.8,131-40,233.4-44.7
		c102.6-4.7,135.4-5.8,396.5-5.8s293.9,1.2,396.5,5.8c102.3,4.6,172.2,20.9,233.4,44.7c63.2,24.5,116.8,57.4,170.3,110.9
		c53.4,53.5,86.3,107.1,110.9,170.3c23.8,61.1,40,131,44.7,233.4c4.7,102.5,5.7,135.3,5.7,396.5s-1.1,293.9-5.7,396.5
		C2201.3,1748.8,2185,1818.7,2161.2,1879.9z"/>
</g>
</svg>
