<?xml version="1.0" encoding="utf-8"?>
<!-- Generator: Adobe Illustrator 27.7.0, SVG Export Plug-In . SVG Version: 6.00 Build 0)  -->
<svg version="1.1" id="Layer_1" xmlns="http://www.w3.org/2000/svg" xmlns:xlink="http://www.w3.org/1999/xlink" x="0px" y="0px"
	 viewBox="0 0 2500 2500" style="enable-background:new 0 0 2500 2500;" xml:space="preserve">
<style type="text/css">
	.st0{fill:#FFFFFF;}
</style>
<g>
	<path class="st0" d="M1250.1,24.4C562.5,24.4,4.9,581.9,4.9,1269.6c0,550.2,356.8,1016.9,851.5,1181.5c62.2,11.5,85.1-27,85.1-59.9
		c0-29.7-1.2-127.8-1.7-231.8c-346.4,75.3-419.5-146.9-419.5-146.9C463.7,1868.6,382,1830.3,382,1830.3c-113-77.3,8.5-75.7,8.5-75.7
		c125,8.8,190.9,128.3,190.9,128.3c111.1,190.4,291.3,135.3,362.3,103.5c11.2-80.5,43.4-135.4,79.1-166.5
		c-276.6-31.5-567.3-138.3-567.3-615.4c0-135.9,48.6-247,128.3-334.2c-12.9-31.4-55.5-158,12.1-329.5c0,0,104.6-33.5,342.5,127.6
		c99.3-27.6,205.8-41.4,311.7-41.9c105.8,0.5,212.4,14.3,311.9,41.9c237.7-161.1,342.1-127.6,342.1-127.6
		c67.8,171.5,25.1,298.2,12.2,329.5c79.8,87.2,128.1,198.3,128.1,334.2c0,478.2-291.3,583.6-568.6,614.4
		c44.7,38.6,84.5,114.4,84.5,230.6c0,166.6-1.4,300.7-1.4,341.7c0,33.1,22.4,72,85.5,59.7c494.5-164.8,850.8-631.4,850.8-1181.4
		C2495.2,581.9,1937.7,24.4,1250.1,24.4"/>
	<path class="st0" d="M471.3,1798.2c-2.7,6.2-12.5,8-21.3,3.8c-9-4.1-14.1-12.5-11.2-18.7c2.7-6.4,12.4-8.1,21.4-3.9
		C469.2,1783.4,474.4,1792,471.3,1798.2 M532.5,1852.8c-5.9,5.5-17.5,2.9-25.4-5.8c-8.1-8.7-9.7-20.3-3.6-25.9
		c6.1-5.5,17.4-2.9,25.5,5.8C537.1,1835.7,538.7,1847.3,532.5,1852.8 M574.5,1922.7c-7.6,5.3-20.1,0.3-27.8-10.7
		c-7.6-11.1-7.6-24.3,0.2-29.7c7.7-5.3,20-0.5,27.8,10.4C582.3,1904,582.3,1917.3,574.5,1922.7 M645.6,2003.7
		c-6.8,7.5-21.4,5.5-32-4.8c-10.9-10-13.9-24.3-7.1-31.8c6.9-7.5,21.5-5.4,32.2,4.8C649.6,1981.9,652.9,1996.3,645.6,2003.7
		 M737.4,2031.1c-3,9.7-17,14.2-31.1,10c-14.1-4.3-23.3-15.7-20.5-25.5c2.9-9.8,17-14.4,31.2-10
		C731.1,2009.8,740.4,2021.1,737.4,2031.1 M842,2042.7c0.4,10.3-11.6,18.8-26.4,19c-14.9,0.3-26.9-8-27.1-18.1
		c0-10.4,11.7-18.8,26.6-19.1C829.8,2024.2,842,2032.5,842,2042.7 M944.6,2038.7c1.8,10-8.5,20.3-23.2,23
		c-14.5,2.6-27.8-3.5-29.7-13.5c-1.8-10.3,8.7-20.6,23.1-23.2C929.6,2022.5,942.8,2028.5,944.6,2038.7"/>
</g>
</svg>
